<?xml version="1.0" encoding="utf-8"?>
<!-- Generator: Adobe Illustrator 19.0.0, SVG Export Plug-In . SVG Version: 6.00 Build 0)  -->
<svg version="1.1" id="Capa_1" xmlns="http://www.w3.org/2000/svg" xmlns:xlink="http://www.w3.org/1999/xlink" x="0px" y="0px"
	 viewBox="0 0 214.4 55.5" style="enable-background:new 0 0 214.4 55.5;" xml:space="preserve">
<style type="text/css">
	.st0{fill:#4A5668;}
	.st1{fill:#439E7B;}
	.st2{fill:#2F6464;}
</style>
<g id="XMLID_283_">
	<g id="XMLID_352_">
		<path id="XMLID_1081_" class="st0" d="M69.9,23v3.4h3v1.2h-3v8.6c0,0.9,0.2,1.5,0.5,1.8c0.3,0.4,0.7,0.5,1.3,0.5
			c0.2,0,0.5,0,0.7,0c0.2,0,0.5-0.1,0.8-0.1l0.2,1.1c-0.2,0.1-0.6,0.2-0.9,0.2c-0.4,0.1-0.7,0.1-1.1,0.1c-1,0-1.7-0.3-2.2-0.9
			c-0.5-0.6-0.8-1.5-0.8-2.8v-8.6h-2.3v-1.2h2.3V23H69.9z"/>
		<path id="XMLID_1073_" class="st0" d="M85.6,37.4c-0.4,0.8-1,1.4-1.7,1.8c-0.7,0.4-1.6,0.6-2.6,0.6c-1.4,0-2.5-0.5-3.3-1.4
			c-0.8-0.9-1.2-2.4-1.2-4.4v-6.4L75,27.5v-1.1h1.7h1.5v7.7c0,1.6,0.3,2.8,0.8,3.5c0.6,0.7,1.4,1.1,2.4,1.1c1.1,0,2-0.2,2.7-0.7
			c0.7-0.5,1.1-1.2,1.4-2v-8.2l-1.9-0.2v-1.1h1.9H87v12l1.8,0.2v1.1h-3.1L85.6,37.4z"/>
		<path id="XMLID_1071_" class="st0" d="M94.5,23v3.4h3v1.2h-3v8.6c0,0.9,0.2,1.5,0.5,1.8c0.3,0.4,0.7,0.5,1.3,0.5
			c0.2,0,0.5,0,0.7,0c0.2,0,0.5-0.1,0.8-0.1l0.2,1.1c-0.2,0.1-0.6,0.2-0.9,0.2c-0.4,0.1-0.7,0.1-1.1,0.1c-1,0-1.7-0.3-2.2-0.9
			c-0.5-0.6-0.8-1.5-0.8-2.8v-8.6h-2.3v-1.2H93V23H94.5z"/>
		<path id="XMLID_1067_" class="st0" d="M106.2,39.9c-1.7,0-3.1-0.6-4.2-1.8c-1.1-1.2-1.7-2.8-1.7-4.7v-0.7c0-1.9,0.6-3.5,1.7-4.7
			c1.1-1.2,2.5-1.9,4-1.9c1.7,0,3,0.5,3.9,1.5c1,1,1.4,2.4,1.4,4.1V33h-9.6v0.4c0,1.5,0.4,2.7,1.2,3.7c0.8,1,1.9,1.5,3.2,1.5
			c0.9,0,1.7-0.1,2.4-0.4c0.7-0.3,1.2-0.6,1.7-1.1l0.6,1c-0.5,0.5-1.2,0.9-1.9,1.2C108.2,39.7,107.3,39.9,106.2,39.9z M106,27.4
			c-1.1,0-2,0.4-2.8,1.2c-0.8,0.8-1.2,1.9-1.3,3.1l0,0.1h7.9v-0.4c0-1.2-0.3-2.1-1-2.9C108.1,27.8,107.2,27.4,106,27.4z"/>
		<path id="XMLID_1062_" class="st0" d="M113.7,21.6v-1.1h3.5v17.9l2,0.2v1.1h-5.6v-1.1l2-0.2V21.8L113.7,21.6z"/>
		<path id="XMLID_1034_" class="st0" d="M131,39.6c-0.1-0.4-0.2-0.8-0.2-1.2c0-0.3-0.1-0.7-0.1-1c-0.5,0.7-1.2,1.3-2,1.7
			c-0.8,0.5-1.8,0.7-2.8,0.7c-1.3,0-2.4-0.3-3.1-1c-0.7-0.7-1.1-1.6-1.1-2.7c0-1.2,0.5-2.2,1.6-2.9c1.1-0.7,2.5-1.1,4.4-1.1h3v-1.8
			c0-0.9-0.3-1.7-0.9-2.2c-0.6-0.5-1.5-0.8-2.6-0.8c-0.8,0-1.4,0.1-2.1,0.3c-0.6,0.2-1.1,0.5-1.6,0.8l-0.1,1.8h-1.2l0-2.5
			c0.6-0.5,1.4-0.9,2.2-1.2c0.9-0.3,1.8-0.4,2.8-0.4c1.5,0,2.7,0.4,3.6,1.1s1.4,1.8,1.4,3.2V37c0,0.3,0,0.5,0,0.8
			c0,0.2,0,0.5,0.1,0.7l1.4,0.1v1.1H131z M126.1,38.6c1.1,0,2-0.2,2.9-0.7c0.8-0.5,1.4-1.1,1.8-1.9v-2.7h-3c-1.4,0-2.4,0.3-3.3,0.8
			c-0.8,0.6-1.2,1.2-1.2,2.1c0,0.7,0.3,1.3,0.8,1.7C124.5,38.4,125.2,38.6,126.1,38.6z"/>
		<path id="XMLID_1031_" class="st1" d="M144.8,38c-0.4,0.6-1,1.1-1.6,1.4c-0.6,0.3-1.4,0.5-2.2,0.5c-1.7,0-2.9-0.6-3.9-1.8
			c-0.9-1.2-1.4-2.7-1.4-4.6v-0.3c0-2.1,0.5-3.8,1.4-5.2c0.9-1.3,2.2-2,3.9-2c0.8,0,1.5,0.1,2.1,0.4c0.6,0.3,1.1,0.7,1.6,1.3v-5.4
			l-2-0.3v-1.6h2h2.5v17.2l2,0.3v1.5H145L144.8,38z M138.2,33.5c0,1.3,0.3,2.4,0.8,3.2c0.6,0.8,1.4,1.2,2.6,1.2
			c0.7,0,1.4-0.2,1.9-0.5c0.5-0.3,0.9-0.8,1.2-1.4v-6.1c-0.3-0.6-0.7-1-1.2-1.3c-0.5-0.3-1.1-0.5-1.8-0.5c-1.2,0-2,0.5-2.6,1.4
			c-0.6,1-0.8,2.2-0.8,3.7V33.5z"/>
		<path id="XMLID_1028_" class="st1" d="M151.1,38.1l2-0.3v-9.5l-2-0.3v-1.6h4.5v11.4l2,0.3v1.5h-6.5V38.1z M155.6,23h-2.5v-2.5h2.5
			V23z"/>
		<path id="XMLID_1022_" class="st1" d="M159.5,33.2c0-2.1,0.5-3.8,1.4-5.2c1-1.3,2.3-2,3.9-2c0.9,0,1.6,0.2,2.2,0.5
			c0.6,0.3,1.2,0.8,1.6,1.4l0.2-1.7h2.1v13.1c0,1.7-0.5,3.1-1.5,4c-1,1-2.4,1.5-4.2,1.5c-0.7,0-1.4-0.1-2.1-0.3
			c-0.8-0.2-1.4-0.4-2-0.7l0.6-1.9c0.5,0.2,1,0.4,1.6,0.6c0.6,0.2,1.2,0.2,1.8,0.2c1.1,0,1.9-0.3,2.4-0.9c0.5-0.6,0.8-1.5,0.8-2.6
			v-1.3c-0.4,0.6-1,1-1.6,1.3c-0.6,0.3-1.3,0.4-2.1,0.4c-1.7,0-3-0.6-3.9-1.8c-1-1.2-1.4-2.7-1.4-4.6V33.2z M162,33.5
			c0,1.3,0.3,2.4,0.9,3.2s1.5,1.2,2.6,1.2c0.7,0,1.4-0.2,1.9-0.5s0.9-0.8,1.2-1.4v-6.1c-0.3-0.6-0.7-1-1.2-1.3
			c-0.5-0.3-1.1-0.5-1.8-0.5c-1.2,0-2.1,0.5-2.6,1.4c-0.6,1-0.9,2.2-0.9,3.7V33.5z"/>
		<path id="XMLID_382_" class="st1" d="M174,38.1l2-0.3v-9.5l-2-0.3v-1.6h4.5v11.4l2,0.3v1.5H174V38.1z M178.5,23H176v-2.5h2.5V23z"
			/>
		<path id="XMLID_380_" class="st1" d="M186.7,23.2v3.2h2.6v1.8h-2.6v8c0,0.6,0.1,1.1,0.4,1.3c0.3,0.3,0.6,0.4,1,0.4
			c0.2,0,0.5,0,0.7-0.1c0.3,0,0.5-0.1,0.7-0.1l0.3,1.7c-0.2,0.1-0.6,0.3-1,0.4c-0.5,0.1-0.9,0.1-1.4,0.1c-1,0-1.8-0.3-2.4-0.9
			c-0.6-0.6-0.9-1.5-0.9-2.8v-8h-2.1v-1.8h2.1v-3.2H186.7z"/>
		<path id="XMLID_359_" class="st1" d="M200.6,39.6c-0.1-0.4-0.1-0.7-0.2-1c0-0.3-0.1-0.6-0.1-0.9c-0.5,0.6-1.1,1.1-1.8,1.5
			c-0.7,0.4-1.5,0.6-2.3,0.6c-1.4,0-2.5-0.3-3.2-1c-0.7-0.7-1.1-1.6-1.1-2.8c0-1.3,0.5-2.2,1.6-2.9s2.5-1,4.3-1h2.5v-1.5
			c0-0.8-0.3-1.4-0.8-1.8c-0.5-0.5-1.2-0.7-2.1-0.7c-0.6,0-1.2,0.1-1.6,0.2c-0.5,0.2-0.9,0.4-1.1,0.6l-0.3,1.4h-1.9v-2.6
			c0.6-0.5,1.4-0.9,2.2-1.2c0.9-0.3,1.8-0.4,2.9-0.4c1.5,0,2.8,0.4,3.7,1.2c1,0.8,1.4,1.9,1.4,3.3V37c0,0.2,0,0.3,0,0.5
			c0,0.2,0,0.3,0,0.5l1,0.1v1.5H200.6z M196.7,37.9c0.8,0,1.6-0.2,2.2-0.6c0.7-0.4,1.2-0.8,1.5-1.4v-2.2h-2.6c-1,0-1.8,0.2-2.4,0.7
			c-0.6,0.5-0.9,1-0.9,1.7c0,0.6,0.2,1,0.6,1.3C195.4,37.7,195.9,37.9,196.7,37.9z"/>
		<path id="XMLID_353_" class="st1" d="M205.6,22.1v-1.6h4.5v17.2l2,0.3v1.5h-6.5v-1.5l2-0.3V22.4L205.6,22.1z"/>
	</g>
	<g id="XMLID_291_">
		<path id="XMLID_348_" class="st2" d="M30,49.8l-11.7,2.9c-3.4,0.8-6.9-1.3-7.7-4.7L7.7,36.3c-0.8-3.4,1.3-6.9,4.7-7.7l11.7-2.9
			c3.4-0.8,6.9,1.3,7.7,4.7l2.9,11.7C35.6,45.5,33.4,49,30,49.8z M12.8,30.3c-2.5,0.6-4,3.1-3.4,5.6l2.9,11.7c0.6,2.5,3.1,4,5.6,3.4
			l11.7-2.9c2.5-0.6,4-3.1,3.4-5.6l-2.9-11.7c-0.6-2.5-3.1-4-5.6-3.4L12.8,30.3z"/>
		<path id="XMLID_342_" class="st1" d="M54.6,34.7L43,37.6c-2.5,0.6-5-0.9-5.6-3.4l-2.7-11.1c-1.3-2.9-5-2.8-5.5-2.8L22.4,22
			c-2.2,0.5-4.4-0.8-4.9-3l-2.2-9.1c-0.5-2.2,0.8-4.4,3-4.9l9.1-2.2c2.2-0.5,4.4,0.8,4.9,3l2.2,9.1c0.6,2.6,3.6,2.2,3.9,2.1
			l11.1-2.7c2.5-0.6,5,0.9,5.6,3.4l2.8,11.6C58.5,31.6,57,34.1,54.6,34.7z M18.6,6.6c-1.3,0.3-2,1.6-1.7,2.8l2.2,9.1
			c0.3,1.3,1.6,2,2.8,1.7l7-1.7c0.2,0,5.5-0.5,7.4,3.9l0,0.1l2.7,11.2c0.4,1.5,1.9,2.5,3.5,2.1l11.6-2.8c1.5-0.4,2.5-1.9,2.1-3.5
			L53.4,18c-0.4-1.5-1.9-2.5-3.5-2.1l-11.2,2.7c-1.7,0.3-5.2,0-6-3.4l-2.2-9.1c-0.3-1.3-1.6-2-2.8-1.7L18.6,6.6z"/>
		<path id="XMLID_339_" class="st2" d="M12,25.3l-4.5,1.1c-1.7,0.4-3.5-0.6-3.9-2.4l-1.2-4.7c-0.4-1.7,0.6-3.5,2.4-3.9l4.5-1.1
			c1.7-0.4,3.5,0.6,3.9,2.4l1.2,4.7C14.8,23.1,13.7,24.8,12,25.3z M5.2,17c-0.8,0.2-1.3,1-1.1,1.8l1.2,4.7c0.2,0.8,1,1.3,1.8,1.1
			l4.5-1.1c0.8-0.2,1.3-1,1.1-1.8L11.5,17c-0.2-0.8-1-1.3-1.8-1.1L5.2,17z"/>
		<path id="XMLID_332_" class="st2" d="M46.8,47.6l-3.1,0.8c-1.3,0.3-2.5-0.5-2.8-1.7l-0.8-3.2c-0.3-1.3,0.5-2.5,1.7-2.8l3.1-0.8
			c1.3-0.3,2.5,0.5,2.8,1.7l0.8,3.2C48.8,46,48,47.3,46.8,47.6z M42.2,42.2c-0.3,0.1-0.5,0.4-0.4,0.7l0.8,3.2
			c0.1,0.3,0.4,0.5,0.7,0.4l3.1-0.8c0.3-0.1,0.5-0.4,0.4-0.7L46,41.9c-0.1-0.3-0.4-0.5-0.7-0.4L42.2,42.2z"/>
		<path id="XMLID_326_" class="st2" d="M28.1,38.2l-0.6,0.2L17.2,28.3l-1.6,14.3l-0.6,0.2l0.2,0.6c0.1,0.2,0.1,0.4,0.2,0.6l0,0.1
			l0,0c1.4,2.9,4.7,4.3,7.8,3.2l1.2-0.4c3.1-1.1,4.8-4.3,4.1-7.4l0,0l-0.1-0.1c0-0.2-0.1-0.4-0.2-0.6L28.1,38.2z M18.2,31.1l7.8,7.9
			L17,42.1L18.2,31.1z M24,45.6l-1.2,0.4c-2.4,0.8-4.9-0.2-6-2.4L27.2,40C27.7,42.4,26.3,44.8,24,45.6z"/>
		<path id="XMLID_292_" class="st1" d="M41,28.3c0,0.2,0.1,0.3,0.1,0.5l0,0.1l0,0c0.6,2.5,3,4.1,5.6,3.8l1-0.1
			c2.6-0.4,4.4-2.6,4.3-5.2l0,0l0,0c0-0.2,0-0.3,0-0.5L52,26.2l-0.5,0.1L45,16.7l-3.5,11l-0.5,0.1L41,28.3z M50.2,26.4l-7.5,1.1
			l2.6-8.5L50.2,26.4z M42.2,28.7l8.8-1.3c0,1.9-1.4,3.7-3.4,3.9l-1,0.1C44.6,31.8,42.7,30.5,42.2,28.7z"/>
	</g>
</g>
</svg>
