<?xml version="1.0" encoding="utf-8"?>
<!-- Generator: Adobe Illustrator 19.0.0, SVG Export Plug-In . SVG Version: 6.00 Build 0)  -->
<svg version="1.1" id="Capa_1" xmlns="http://www.w3.org/2000/svg" xmlns:xlink="http://www.w3.org/1999/xlink" x="0px" y="0px"
	 viewBox="0 0 1096.9 269.2" style="enable-background:new 0 0 1096.9 269.2;" xml:space="preserve">
<style type="text/css">
	.st0{fill:#FFFFFF;}
	.st1{fill:#439E7B;}
	.st2{fill:#2F6464;}
</style>
<g id="XMLID_1875_">
	<g id="XMLID_2069_">
		<path id="XMLID_2264_" class="st0" d="M357.3,110.2v17.4h15.3v6.1h-15.3v44.2c0,4.4,0.8,7.6,2.5,9.4s3.8,2.8,6.6,2.8
			c1.2,0,2.4-0.1,3.6-0.2c1.2-0.1,2.5-0.3,4.1-0.5l1.2,5.6c-1.3,0.5-2.8,1-4.7,1.3c-1.8,0.3-3.7,0.4-5.5,0.4
			c-4.9,0-8.7-1.5-11.4-4.5c-2.7-3-4.1-7.8-4.1-14.3v-44.2h-11.9v-6.1h11.9v-17.4H357.3z"/>
		<path id="XMLID_2262_" class="st0" d="M437.7,184.3c-2.2,4-5.2,7-8.9,9.2c-3.8,2.2-8.2,3.3-13.4,3.3c-7.3,0-13-2.4-17.1-7.3
			c-4.1-4.8-6.2-12.4-6.2-22.6V134l-8.6-0.8v-5.6h8.6h7.6V167c0,8.3,1.4,14.2,4.3,17.8c2.9,3.6,7,5.4,12.3,5.4
			c5.8,0,10.4-1.3,13.9-3.8c3.4-2.5,5.9-6,7.3-10.4V134l-9.9-0.8v-5.6h9.9h7.7v61.5l9.3,0.8v5.5h-16L437.7,184.3z"/>
		<path id="XMLID_2260_" class="st0" d="M483.3,110.2v17.4h15.3v6.1h-15.3v44.2c0,4.4,0.8,7.6,2.5,9.4s3.8,2.8,6.6,2.8
			c1.2,0,2.4-0.1,3.6-0.2c1.2-0.1,2.5-0.3,4.1-0.5l1.2,5.6c-1.3,0.5-2.8,1-4.7,1.3c-1.8,0.3-3.7,0.4-5.5,0.4
			c-4.9,0-8.7-1.5-11.4-4.5c-2.7-3-4.1-7.8-4.1-14.3v-44.2h-11.9v-6.1h11.9v-17.4H483.3z"/>
		<path id="XMLID_2221_" class="st0" d="M543.3,196.8c-8.7,0-15.9-3.1-21.7-9.4c-5.7-6.3-8.6-14.2-8.6-23.9v-3.4
			c0-9.7,2.9-17.8,8.6-24.2c5.7-6.4,12.6-9.6,20.7-9.6c8.5,0,15.2,2.6,20.1,7.9c4.9,5.3,7.3,12.3,7.3,21.1v6.4h-49v1.8
			c0,7.6,2.1,14,6.3,19.2c4.2,5.2,9.6,7.7,16.4,7.7c4.7,0,8.8-0.6,12.2-1.9s6.3-3.2,8.7-5.6l3.3,5.1c-2.6,2.7-5.9,4.8-9.9,6.4
			C553.5,196,548.8,196.8,543.3,196.8z M542.2,132.7c-5.6,0-10.4,2.1-14.3,6.4c-3.9,4.2-6.1,9.6-6.8,16l0.1,0.3H562v-1.9
			c0-5.9-1.8-10.8-5.3-14.8C553.1,134.7,548.3,132.7,542.2,132.7z"/>
		<path id="XMLID_2214_" class="st0" d="M581.8,103.2v-5.6h18.1v91.5l10.4,0.8v5.5h-28.5v-5.5l10.5-0.8V104L581.8,103.2z"/>
		<path id="XMLID_2151_" class="st0" d="M670.3,195.5c-0.5-2.3-0.9-4.3-1.1-6c-0.2-1.7-0.3-3.4-0.3-5.1c-2.6,3.6-6,6.5-10.3,8.8
			c-4.3,2.3-9.1,3.5-14.4,3.5c-6.8,0-12.1-1.7-15.8-5.1c-3.7-3.4-5.6-8.1-5.6-13.9c0-6.3,2.8-11.2,8.3-14.9c5.5-3.7,13-5.5,22.4-5.5
			h15.3v-9c0-4.8-1.6-8.7-4.8-11.4c-3.2-2.8-7.6-4.1-13.4-4.1c-3.8,0-7.4,0.5-10.5,1.5c-3.2,1-5.8,2.4-8,4.2l-0.6,9.1h-6.3l0.1-13
			c3.2-2.4,7-4.4,11.5-5.9c4.5-1.5,9.2-2.3,14.3-2.3c7.7,0,13.8,1.9,18.5,5.7c4.7,3.8,7,9.3,7,16.4v33.4c0,1.4,0,2.7,0.1,4
			c0.1,1.3,0.2,2.5,0.4,3.7l6.9,0.4v5.5H670.3z M645.1,190.1c5.6,0,10.5-1.3,14.7-3.8c4.2-2.5,7.3-5.7,9.2-9.7V163h-15.4
			c-7,0-12.5,1.4-16.7,4.2c-4.2,2.8-6.3,6.4-6.3,10.7c0,3.6,1.3,6.6,3.9,8.8C637,189,640.6,190.1,645.1,190.1z"/>
		<path id="XMLID_2148_" class="st1" d="M741.1,187.4c-2.3,3.1-5,5.4-8.3,7c-3.3,1.6-7.1,2.4-11.4,2.4c-8.5,0-15.1-3-19.8-9
			c-4.8-6-7.1-13.9-7.1-23.7v-1.3c0-10.9,2.4-19.7,7.1-26.4c4.8-6.7,11.4-10,20-10c4.1,0,7.7,0.7,10.9,2.2c3.1,1.5,5.8,3.6,8,6.4
			v-27.7l-10.5-1.8v-8h10.5h12.6v88.2l10.5,1.8v7.9h-21.4L741.1,187.4z M707.1,164.1c0,6.8,1.4,12.3,4.3,16.4
			c2.9,4.1,7.3,6.2,13.3,6.2c3.8,0,6.9-0.8,9.5-2.5c2.6-1.7,4.7-4,6.3-7.1v-31.5c-1.6-2.8-3.7-5.1-6.3-6.8c-2.6-1.7-5.7-2.5-9.4-2.5
			c-6,0-10.5,2.4-13.4,7.3c-2.9,4.9-4.3,11.2-4.3,19.1V164.1z"/>
		<path id="XMLID_2143_" class="st1" d="M773.2,187.5l10.4-1.8v-48.5l-10.4-1.8v-8h23.1v58.2l10.4,1.8v7.9h-33.5V187.5z
			 M796.3,110.2h-12.6V97.6h12.6V110.2z"/>
		<path id="XMLID_2139_" class="st1" d="M816.4,162.8c0-10.9,2.4-19.7,7.3-26.4c4.9-6.7,11.6-10,20.2-10c4.4,0,8.2,0.8,11.5,2.5
			c3.3,1.7,6,4.1,8.3,7.3l1.2-8.5h10.6v67c0,8.8-2.5,15.7-7.5,20.7c-5,5-12.1,7.6-21.3,7.6c-3.3,0-6.9-0.5-10.8-1.3
			c-3.9-0.9-7.3-2.1-10.3-3.7l3.3-9.6c2.4,1.2,5.1,2.2,8.3,3c3.2,0.8,6.3,1.2,9.4,1.2c5.6,0,9.8-1.5,12.4-4.6
			c2.6-3.1,3.9-7.5,3.9-13.2v-6.5c-2.3,2.8-5,5-8.1,6.5c-3.2,1.5-6.8,2.2-10.9,2.2c-8.5,0-15.2-3-20.1-9c-4.9-6-7.3-13.9-7.3-23.7
			V162.8z M829,164.1c0,6.8,1.5,12.3,4.4,16.4c2.9,4.1,7.4,6.2,13.5,6.2c3.8,0,7-0.8,9.6-2.5c2.6-1.7,4.7-4.1,6.3-7.2v-31.2
			c-1.6-2.9-3.7-5.2-6.3-6.9c-2.6-1.7-5.7-2.5-9.4-2.5c-6,0-10.5,2.5-13.5,7.4c-3,4.9-4.5,11.3-4.5,19V164.1z"/>
		<path id="XMLID_2094_" class="st1" d="M890.6,187.5l10.5-1.8v-48.5l-10.5-1.8v-8h23.1v58.2l10.4,1.8v7.9h-33.5V187.5z
			 M913.7,110.2h-12.6V97.6h12.6V110.2z"/>
		<path id="XMLID_2090_" class="st1" d="M955.8,111.2v16.4H969v9.2h-13.1v41.2c0,3.2,0.7,5.4,2,6.7c1.3,1.3,3.1,1.9,5.4,1.9
			c1.1,0,2.4-0.1,3.8-0.3c1.4-0.2,2.6-0.4,3.5-0.6l1.7,8.5c-1.2,0.8-2.9,1.4-5.3,1.9c-2.3,0.5-4.6,0.7-6.9,0.7
			c-5.1,0-9.2-1.5-12.2-4.5c-3-3-4.6-7.8-4.6-14.3v-41.2h-11v-9.2h11v-16.4H955.8z"/>
		<path id="XMLID_2081_" class="st1" d="M1027.1,195.5c-0.4-1.8-0.7-3.5-0.9-5s-0.4-2.9-0.4-4.4c-2.4,3.1-5.5,5.6-9.1,7.6
			c-3.7,2-7.6,3-11.7,3c-7.2,0-12.7-1.7-16.5-5.2c-3.8-3.4-5.6-8.3-5.6-14.6c0-6.4,2.7-11.4,8-14.9c5.3-3.5,12.6-5.2,21.9-5.2h13
			V149c0-4-1.3-7.1-3.8-9.4c-2.6-2.3-6.1-3.5-10.7-3.5c-3.2,0-6,0.4-8.4,1.2c-2.4,0.8-4.4,1.9-5.9,3.3l-1.3,7.2h-9.7v-13.2
			c3.2-2.5,7-4.4,11.5-5.9c4.5-1.5,9.4-2.2,14.6-2.2c7.9,0,14.2,2,19.1,5.9c4.9,3.9,7.3,9.6,7.3,16.9v32.7c0,0.9,0,1.7,0,2.6
			c0,0.8,0.1,1.7,0.2,2.5l5.1,0.7v7.9H1027.1z M1006.8,186.4c4.2,0,8-1,11.5-2.9c3.5-2,5.9-4.3,7.4-7.1v-11.2h-13.5
			c-5.2,0-9.3,1.2-12.3,3.5c-3,2.3-4.5,5.2-4.5,8.5c0,3,0.9,5.2,2.8,6.8C1000.2,185.6,1003,186.4,1006.8,186.4z"/>
		<path id="XMLID_2070_" class="st1" d="M1052.5,105.6v-8h23.1v88.2l10.5,1.8v7.9h-33.5v-7.9l10.4-1.8v-78.5L1052.5,105.6z"/>
	</g>
	<g id="XMLID_1876_">
		<path id="XMLID_2061_" class="st2" d="M153.1,247.8l-59.9,14.6c-17.5,4.3-35.3-6.5-39.6-24l-14.6-59.9c-4.3-17.5,6.5-35.3,24-39.6
			l59.9-14.6c17.5-4.3,35.3,6.5,39.6,24l14.6,59.9C181.4,225.7,170.6,243.5,153.1,247.8z M65.1,147.5c-12.8,3.1-20.6,16.1-17.5,28.8
			l14.6,59.9c3.1,12.8,16.1,20.6,28.8,17.5l59.9-14.6c12.8-3.1,20.6-16.1,17.5-28.8l-14.6-59.9c-3.1-12.8-16.1-20.6-28.8-17.5
			L65.1,147.5z"/>
		<path id="XMLID_2057_" class="st1" d="M278.8,170.5L219.4,185c-12.6,3.1-25.4-4.7-28.5-17.3l-14-57.1
			c-6.7-15.1-25.6-14.3-28.2-14.1l-34.8,8.5c-11.2,2.7-22.6-4.2-25.3-15.4L77.3,43.1c-2.7-11.2,4.1-22.6,15.4-25.3l46.5-11.4
			c11.2-2.7,22.6,4.2,25.3,15.4l11.4,46.5c3.3,13.5,18.5,11.2,20.2,10.9l57.1-14c12.6-3.1,25.4,4.7,28.5,17.3l14.5,59.4
			C299.1,154.6,291.4,167.4,278.8,170.5z M94.8,26.5c-6.4,1.6-10.4,8.1-8.8,14.5l11.4,46.5c1.6,6.4,8.1,10.4,14.5,8.8l35.7-8.7
			c1.1-0.1,28.2-2.5,37.7,19.8l0.2,0.7l14,57.5c1.9,7.9,9.9,12.7,17.7,10.8l59.4-14.5c7.9-1.9,12.7-9.9,10.8-17.7l-14.5-59.4
			C271,76.9,263,72,255.2,73.9l-57.4,14c-8.9,1.6-26.4-0.1-30.7-17.5L155.8,24c-1.6-6.4-8.1-10.4-14.5-8.8L94.8,26.5z"/>
		<path id="XMLID_1990_" class="st2" d="M60.5,121.8l-23.2,5.7c-8.9,2.2-17.9-3.3-20-12.2l-5.9-24.2c-2.2-8.9,3.3-17.9,12.2-20
			l23.2-5.7c8.9-2.2,17.9,3.3,20,12.2l5.9,24.2C74.9,110.7,69.4,119.7,60.5,121.8z M25.7,79.8c-4.1,1-6.6,5.2-5.6,9.3l5.9,24.2
			c1,4.1,5.2,6.6,9.3,5.6l23.2-5.7c4.1-1,6.6-5.2,5.6-9.3l-5.9-24.2c-1-4.1-5.2-6.6-9.3-5.6L25.7,79.8z"/>
		<path id="XMLID_1987_" class="st2" d="M239,236.2l-15.9,3.9c-6.4,1.6-12.9-2.4-14.5-8.8l-4.1-16.6c-1.6-6.4,2.4-12.9,8.8-14.5
			l15.9-3.9c6.4-1.6,12.9,2.4,14.5,8.8l4.1,16.6C249.3,228.2,245.4,234.7,239,236.2z M215.4,208.9c-1.7,0.4-2.7,2.1-2.3,3.8
			l4.1,16.6c0.4,1.7,2.1,2.7,3.8,2.3l15.9-3.9c1.7-0.4,2.7-2.1,2.3-3.8l-4.1-16.6c-0.4-1.7-2.1-2.7-3.8-2.3L215.4,208.9z"/>
		<path id="XMLID_1978_" class="st2" d="M143,188.3l-3.2,1.1l-52.4-52l-8.4,73.4l-3.2,1.1l1.2,3.3c0.4,1,0.8,2,1.2,2.9l0,0.4
			l0.2-0.1c7,14.7,24.2,22.1,39.9,16.6l6.3-2.2c15.7-5.5,24.5-22,20.8-37.9l0.2-0.1l-0.3-0.3c-0.2-1-0.5-2-0.9-3L143,188.3z
			 M92.4,151.9l39.8,40.3l-45.6,16L92.4,151.9z M122,226.2l-6.3,2.2c-12.1,4.2-25.2-1.2-30.9-12.3l53.6-18.8
			C140.9,209.5,134.1,222,122,226.2z"/>
		<path id="XMLID_1882_" class="st1" d="M209.3,137.4c0.1,0.8,0.3,1.7,0.5,2.5l-0.1,0.3l0.2,0c3.2,12.6,15.5,21.1,28.7,19.2l5.3-0.8
			c13.2-1.9,22.7-13.5,22.2-26.5l0.2,0l-0.2-0.2c0-0.8-0.1-1.7-0.2-2.5l-0.4-2.8l-2.7,0.4l-33.1-49l-18.1,56.3l-2.7,0.4L209.3,137.4
			z M256.4,127.8l-38.3,5.5L231.4,90L256.4,127.8z M215.5,139.3l45.1-6.4c0,10-7.3,18.7-17.4,20.2l-5.3,0.8
			C227.7,155.2,218.2,148.9,215.5,139.3z"/>
	</g>
</g>
</svg>
